<svg width="70" height="70" viewBox="0 0 152 152" fill="none" xmlns="http://www.w3.org/2000/svg">
<g clip-path="url(#clip0_871_60610)">
<path d="M80.5049 3.41955C77.1679 2.30188 75.1256 2.30188 71.7887 3.41955C63.6474 6.14587 64.0007 23.4009 66.5164 40.4247C60.1471 24.4381 51.7913 9.33706 43.3816 11.0658C39.9341 11.7744 38.1682 12.7991 35.8429 15.441C30.2505 21.7937 38.8853 36.2148 49.4027 49.5188C36.0751 39.0306 21.6353 30.428 15.2947 36.0344C12.6578 38.3653 11.6366 40.1337 10.9361 43.5827C9.23748 51.9391 24.1401 60.2055 40.0191 66.523C23.1083 64.054 6.06942 63.7605 3.36169 71.8465C2.24402 75.1834 2.24402 77.2258 3.36169 80.5627C6.06942 88.6487 23.1088 88.3552 40.0191 85.8862C24.1401 92.2043 9.23799 100.47 10.9356 108.827C11.6366 112.276 12.6578 114.044 15.2947 116.375C21.6353 121.981 36.0751 113.379 49.4027 102.89C38.8848 116.194 30.2505 130.616 35.8429 136.969C38.1682 139.61 39.9341 140.635 43.3811 141.344C51.7913 143.072 60.1471 127.971 66.5164 111.984C64.0007 129.008 63.6474 146.263 71.7887 148.99C75.1256 150.107 77.1679 150.107 80.5049 148.99C88.6461 146.263 88.2928 129.007 85.7771 111.983C92.1464 127.97 100.502 143.072 108.912 141.344C112.359 140.635 114.126 139.61 116.451 136.969C122.043 130.616 113.409 116.194 102.891 102.89C116.219 113.379 130.659 121.981 136.999 116.375C139.636 114.044 140.657 112.276 141.358 108.827C143.056 100.47 128.154 92.2043 112.275 85.8862C129.185 88.3552 146.224 88.6482 148.932 80.5627C150.05 77.2258 150.05 75.1834 148.932 71.8465C146.224 63.761 129.185 64.054 112.275 66.523C128.154 60.205 143.056 51.9391 141.358 43.5827C140.657 40.1337 139.636 38.3653 136.999 36.0344C130.658 30.4275 116.218 39.0311 102.891 49.5193C113.408 36.2148 122.043 21.7937 116.451 15.4405C114.125 12.7991 112.359 11.7739 108.912 11.0653C100.502 9.33706 92.1464 24.4381 85.7771 40.4252C88.2928 23.4014 88.6461 6.14638 80.5049 3.41955Z" stroke="#43A363" stroke-width="3.76911" stroke-linecap="round" stroke-linejoin="round"/>
</g>
<defs>
<clipPath id="clip0_871_60610">
<rect width="150.764" height="150.764" fill="white" transform="translate(0.764648 0.82251)"/>
</clipPath>
</defs>
</svg>
